<?xml version="1.0" encoding="UTF-8"?>
<svg id="Layer_2" data-name="Layer 2" xmlns="http://www.w3.org/2000/svg" version="1.1" viewBox="0 0 1228.2 283.8">
  <defs>
    <style>
      .cls-1 {
        fill: #54b1d7;
      }

      .cls-1, .cls-2, .cls-3 {
        stroke-width: 0px;
      }

      .cls-2 {
        fill: #91cdea;
      }

      .cls-3 {
        fill: #55b3d8;
      }
    </style>
  </defs>
  <g>
    <path class="cls-2" d="M108.1,136C124.2,118,178.1,52,146.6,0c0,0-68,13.9-67.4,128.8,7.2.2,14.5,1.5,21.7,4.1,2.5.9,4.9,1.9,7.2,3.1h0Z"/>
    <path class="cls-2" d="M197.5,86s-45.2-11.7-78.1,56.9c6,4.5,11.1,9.8,15.4,15.9,16.2-6.8,67.1-31.5,62.7-72.8Z"/>
  </g>
  <g id="clock">
    <path class="cls-3" d="M71.7,136.7C32.1,136.7,0,169.6,0,210.2s32.1,73.6,71.7,73.6,71.7-32.9,71.7-73.6-32.1-73.5-71.7-73.5h0ZM71.7,265.3c-29.7,0-53.8-24.7-53.8-55.2s24.1-55.2,53.8-55.2,53.8,24.7,53.8,55.2-24.1,55.2-53.8,55.2Z"/>
    <path class="cls-3" d="M98.6,203.3h-23.2l-16.1-25.9c-2.1-3.4-6.8-4.2-9.9-1.6-2.7,2.2-3.3,6.3-1.5,9.1l18,29c1.2,1.9,3.3,3.2,5.6,3.2h27.1c3.7,0,6.7-3.1,6.7-6.9s-3-6.9-6.7-6.9h0Z"/>
  </g>
  <g>
    <path class="cls-3" d="M354.2,152.6c-.9,23.1-17.7,36-43.7,36.9-12.4.4-29,.2-36-.4-9.3-.9-14.7-5.9-15-15.6-1.2-32.4-.2-75.5.9-105.4.2-5,2.7-7.7,6.6-8.2,12.7-1.4,33.5-2,45.5-1.8,29.7.4,44.4,14.3,44.4,34.5s-11.3,28.1-22.5,30.8c10.7,3.6,20.4,14,19.9,29.2h0ZM276.7,173.2c7,.2,25.8.9,34.5.4,15.6-1.1,25.1-9.3,25.1-21.7s-8.1-20.8-24.9-20.8-26.7.2-34.7,1.1v41h0ZM277.3,117.2c10.9.5,25.8-.2,34.2-.7,15.9-1.1,27.4-9.7,27.6-22.7.2-18.6-17.7-20.1-33.3-20.1s-21.5.7-27.2,1.4c-.4,8.1-1.2,34.9-1.2,42.1,0,0-.1,0-.1,0Z"/>
    <path class="cls-3" d="M438.7,101.8c0-6.6,1.4-8.1,9-8.1s8.6,2.5,8.6,7.5c0,24.9.2,58-1.6,79.1-.5,6.3-2.7,9.7-9,9.7s-7-1.1-7.5-5.4c-.5-3.2-.5-5.2-.5-8.8-5.2,7.5-15.4,13.4-25.1,14-23.6,1.2-38.5-13.6-39.4-36.2-.5-18.1-.7-32.4-.9-51.6,0-5,.2-8.2,8.8-8.4s9.3,3.8,9.5,8.8c.2,9.3.2,38.7.5,47.6,1.1,18.3,13.8,24.5,24.2,24,14.1-.7,23.3-13.4,23.3-26.5l.2-45.8h-.1Z"/>
    <path class="cls-3" d="M477,165c2.1-2.1,7.2-4.1,10-2,7.7,6.1,17.5,10.9,27.6,11.3,10.6.4,16.5-2.1,17.4-5.9.9-3.9-1.8-8.1-9.7-11.3-9.3-3.8-22-7.9-31.9-11.6-14.5-5.4-20.6-17-18.6-29.4,2-12.5,13.8-21.5,37.6-22,14.9-.4,29.2,4.1,37.2,10.4,5.2,3.9,7.2,8.6,2.3,13.4-3.9,3.9-9.1,5-12.7,1.8-6.8-5.9-15.2-9.5-27.2-9.8-12.4-.4-16.8,3.6-17.7,8.1-1.1,5.2,1.1,10.2,7.5,12.9,8.8,3.8,21.8,8.1,30.6,11.5,15.9,6.4,23.6,13.6,22.2,26.7-1.6,14.1-16.3,21.1-36.7,21.1s-31.9-5.2-38-12.9c-3.8-4.3-3.9-8.4,0-12.2h.1Z"/>
    <path class="cls-3" d="M637.8,99.1c1.8-5,6.3-6.1,12.7-4.6,7.2,1.6,9,5,6.6,10.4-13.6,31.3-36.5,79.1-62.1,117.1-2.7,3.8-7.3,5.2-11.5,2.1-3.9-2.9-3.6-6.1-1.2-10,4.8-7.9,14-23.1,17.2-29.5,1.4-2.9,1.2-5,.2-7-10.7-20.4-29.2-57.6-36.5-73.4-2.3-5-.4-7.3,6.4-9.5,5-1.4,10.4-2,12.7,3.9,4.5,10.9,21.5,48.2,28.8,63,7.7-15.2,17.2-36.5,26.7-62.5h0Z"/>
    <path class="cls-1" d="M862.2,156.1"/>
    <path class="cls-1" d="M815.4,154.4c-.9,23.1-17.7,36-43.7,36.9-12.4.4-29,.2-36-.4-9.3-.9-14.7-5.9-15-15.6-1.3-32.4-.2-75.5.9-105.4.2-5,2.7-7.7,6.6-8.2,12.7-1.4,33.5-2,45.5-1.8,29.7.4,44.4,14.3,44.4,34.5s-11.3,28.1-22.6,30.8c10.7,3.6,20.4,14,19.9,29.2h0ZM737.9,175c7,.2,25.8.9,34.5.4,15.6-1.1,25.1-9.3,25.1-21.7s-8.1-20.8-24.9-20.8-26.7.2-34.7,1.1v41h0ZM738.4,119c10.9.5,25.8-.2,34.2-.7,15.9-1.1,27.4-9.7,27.6-22.7.2-18.6-17.7-20-33.3-20s-21.5.7-27.2,1.4c-.4,8.1-1.3,34.9-1.3,42.1h0Z"/>
    <path class="cls-1" d="M899.8,103.6c0-6.6,1.4-8.1,9-8.1s8.6,2.5,8.6,7.5c0,24.9.2,58-1.6,79.1-.5,6.3-2.7,9.7-9,9.7s-7-1.1-7.5-5.4c-.5-3.2-.5-5.2-.5-8.8-5.2,7.5-15.4,13.4-25.1,14-23.6,1.3-38.5-13.6-39.4-36.2-.5-18.1-.7-32.4-.9-51.6,0-5,.2-8.2,8.8-8.4s9.3,3.8,9.5,8.8c.2,9.3.2,38.7.5,47.6,1.1,18.3,13.8,24.5,24.2,24,14.1-.7,23.3-13.4,23.3-26.5l.2-45.8h0Z"/>
    <path class="cls-1" d="M1005.1,138.2c0-18.3-9.8-25.8-24.3-25.1-13.2.7-23.1,11.3-23.3,24-.2,14.9-.2,29.5-.7,44.9-.4,8.4-3.2,10.6-8.2,10.6s-7.3-1.3-7.9-9.1c-1.4-23.6-2.8-49.6-2.5-77.5,0,0,2-9,9.5-9.5,6.8-.4,9.3,1.8,9.7,6.6.2,2,.2,6.4.4,8.6,4.3-7.7,12.7-14.1,25.1-15,26.1-1.8,40.6,15.9,40.6,39s-1.8,37.4-2.7,49.6c-.5,6.8-2,7.9-8.4,7.7-4.7-.2-7.2-.7-7.2-8.8v-46h0Z"/>
    <path class="cls-1" d="M1104.3,137.2c0-18.3-9.8-25.8-24.3-25.1-13.2.7-23.1,11.3-23.3,24-.2,14.9-.2,29.5-.7,44.9-.4,8.4-3.2,10.6-8.2,10.6s-7.3-1.3-7.9-9.1c-1.4-23.6-2.9-49.6-2.5-77.5,0,0,2-9,9.5-9.5,6.8-.4,9.3,1.8,9.7,6.6.2,2,.2,6.4.4,8.6,4.3-7.7,12.7-14.1,25.1-15,26.1-1.8,40.6,15.9,40.6,39s-1.8,37.4-2.7,49.6c-.5,6.8-2,7.9-8.4,7.7-4.7-.2-7.2-.7-7.2-8.8v-46h0Z"/>
    <path class="cls-1" d="M1152.4,215.8c4.8-7.9,14-23.1,17.2-29.5,1.4-2.9,1.3-5,.2-7-10.7-20.4-29.2-57.6-36.5-73.4-2.3-5-.4-7.3,6.4-9.5,5-1.4,10.4-2,12.7,3.9,4.5,10.9,21.5,48.2,28.8,63,7.7-15.2,17.2-36.5,26.7-62.5,1.8-5,6.3-6.1,12.7-4.7,7.2,1.6,9,5,6.6,10.4-13.6,31.3-36.5,79.1-62.1,117.1"/>
  </g>
</svg>