<?xml version="1.0" encoding="UTF-8"?>
<svg id="Layer_1" data-name="Layer 1" xmlns="http://www.w3.org/2000/svg" version="1.1" viewBox="0 0 100 100">
  <defs>
    <style>
      .cls-1 {
        fill-rule: evenodd;
      }

      .cls-1, .cls-2 {
        fill: #287c83;
        stroke-width: 0px;
      }
    </style>
  </defs>
  <path class="cls-1" d="M89.9,35.1c-.2.6-.5,1.1-1.1,1.6s-1.1.7-1.6.7-1.4-.6-3.1-1.9c-.8-.6-1.5-.9-2.1-.9-1.8,0-3.2.6-4.1,1.8-.5.7-1,1.7-1.4,2.9-.2.7-.5,1.8-.9,3.4-.5,2.3-.8,3.8-1.1,4.5-.4,1.5-1,2.8-1.7,3.7-1.3,1.8-2.5,3.2-3.8,4.5-1.2,1.2-2.6,2.3-4.1,3.2-1.3.7-2.6,1.3-3.9,1.9-1.4.5-2.9.9-4.6,1.2v1.3l.8,3.4c0,.3,0,.6,0,1.1v1c0,.4-.3.7-.8.7h-3.6c-.4,0-.7-.2-.7-.7s0-1.3-.1-2.6-.1-2-.1-2.2v-1.1c-1.3.3-2.7.5-4,.5h-3.9v1.2c.2,1,.4,1.9.7,2.9v1.1c0,.2,0,.5-.1.8,0,.3-.3.4-.7.3-.2,0-.5,0-1-.1-.6,0-1.1,0-1.7,0h-1.3c-.5,0-.7-.2-.7-.6l.2-.4v-5.2c-.5.2-1.2.5-2,.9-.6.3-1.2.6-2,1.1-2.4,1.4-4.2,1.4-5.7,2-2.3.9-4.8,1.4-7.3,1.4s-3.5,0-5.5-.5c-2-.4-4.2-.4-6.6-1.2-.3-.1-.5-.3-.5-.6s.3-.6.8-.6c5.8,0,9.9-.3,12.6-.8,2.6-.5,4.6-1.4,5.8-2.8,1.9-3.6,3.7-6.5,5.5-8.7s4.2-4.3,7.4-6.1c.6-.3,1.2-.6,1.8-.7.7-.2,1.4-.2,2.1-.2,1.4,0,3.5.8,6.4,2.2s5.1,2.2,6.6,2.2h1.2c.6,0,1.1,0,1.5,0,.4,0,.8-.2,1.2-.4,1.4-.6,2.6-1.4,3.7-2.4.9-.8,1.7-1.9,2.6-3.2.5-.8,1.3-2.3,2.4-4.3.9-1.8,1.7-3.2,2.3-4.3.9-1.5,1.9-2.6,3.1-3.4,1.4-.9,2.9-1.4,4.6-1.4s2.8.2,4.4.7c1.5.5,2.6,1.1,3.4,1.8.6.5.9,1.1.7,1.8h0Z"/>
  <circle class="cls-2" cx="88" cy="34.1" r=".4"/>
</svg>