<?xml version="1.0" encoding="UTF-8"?>
<svg id="Layer_1" data-name="Layer 1" xmlns="http://www.w3.org/2000/svg" version="1.1" viewBox="0 0 312.5 308.64">
  <defs>
    <style>
      .cls-1 {
        fill-rule: evenodd;
      }

      .cls-1, .cls-2 {
        fill: #287c83;
      }

      .cls-1, .cls-2, .cls-3, .cls-4 {
        stroke-width: 0px;
      }

      .cls-3 {
        fill: #111;
      }

      .cls-4 {
        fill: #267b82;
      }
    </style>
  </defs>
  <path class="cls-3" d="M309.77,122.44c-2.2-11.41-5.68-22.55-10.37-33.18C270.36,24.72,200.48-11.08,131.13,3.05c-5.71,1.14-11.35,2.63-16.89,4.44-8.01,2-15.84,4.67-23.4,8C13.68,49.75-21.11,140.07,13.15,217.24c1.65,3.72,3.46,7.38,5.4,10.96,3.6,6.6,7.65,12.94,12.15,18.96,4.56,5.95,9.51,11.59,14.81,16.89,43.03,42.82,107.29,56.18,163.83,34.07l9.78-4.15,8.89-4.44c5.98-3.36,11.72-7.12,17.18-11.26l8-6.22,3.56-3.26,3.26-2.67,5.93-5.33,2.07-1.78,1.78-2.07,5.33-5.93c6.67-7.56,12.53-15.8,17.48-24.59,7.78-13.56,13.37-28.25,16.59-43.55,4.22-19.9,4.42-40.45.59-60.43h0ZM257.93,262.57l-3.55,3.26-3.56,3.26-7.7,6.22c-5.38,3.93-11.02,7.5-16.89,10.67l-8.89,4.44-9.48,3.85-14.52,4.74h-1.48c-19.82,4.14-40.28,4.24-60.14.3-11.33-2.3-22.36-5.88-32.88-10.67-11.1-5.03-21.55-11.4-31.11-18.96-10.12-8.11-19.18-17.47-26.96-27.85-4.03-5.38-7.69-11.02-10.96-16.89-1.78-2.96-3.26-5.93-4.74-9.18s-2.96-6.22-3.85-9.48C1.62,155.22,11.39,97.54,46.7,55.78l2.37-2.37,1.48-1.78,1.78-1.78,3.56-3.26,7.11-6.22C97.09,12.74,141.61,1.48,184.75,9.57c15.25,2.75,29.96,7.95,43.55,15.4,8.79,4.83,17.04,10.59,24.59,17.18l5.92,5.33,2.07,1.78,1.78,2.07,5.33,5.93c16.88,19.31,28.42,42.7,33.48,67.84,3.91,19.77,3.81,40.12-.3,59.84-2.32,11.23-5.9,22.16-10.67,32.59-5.21,11.14-11.77,21.59-19.55,31.11l-6.22,7.11-6.81,6.81ZM124.91,301.08c-14.18-2.93-27.85-7.92-40.59-14.81-6.4-3.51-12.53-7.47-18.37-11.85-5.74-4.38-11.18-9.13-16.29-14.22C8.65,218.7-4.12,156.95,17.07,102.59c1.18-3.26,2.67-6.22,3.85-9.18l1.78-3.85c-4.6,10.44-7.98,21.37-10.07,32.59-5.68,28.25-3.22,57.53,7.11,84.43,1.18,3.26,2.67,6.52,4.15,9.48s2.96,6.22,4.74,9.18c3.26,5.97,6.92,11.71,10.96,17.18,7.84,10.51,17,19.97,27.26,28.14,9.73,7.7,20.38,14.17,31.7,19.26,26.63,11.99,56.16,16,85.03,11.55-19.38,3.79-39.32,3.69-58.66-.3h0ZM308.29,182.88c-3.11,15.28-8.61,29.98-16.29,43.55-4.85,8.77-10.61,17.02-17.18,24.59l-5.33,5.92-1.78,2.07-2.07,1.78-5.63,5.04h.59l6.81-7.11,6.22-7.41c7.71-9.83,14.18-20.58,19.26-32,12.96-29.42,16.28-62.19,9.48-93.62-1.76-8.3-4.24-16.42-7.41-24.29-2.59-6.63-5.66-13.07-9.18-19.26-4.95-8.79-10.81-17.03-17.48-24.59l-5.33-5.92-1.78-2.07-2.07-1.78-5.93-5.33c-7.43-7.05-15.57-13.3-24.29-18.67-6.18-3.63-12.61-6.8-19.26-9.48-7.86-3.26-15.99-5.84-24.29-7.7-12.35-2.72-24.99-3.91-37.62-3.56,22.85-2.01,45.85,1.24,67.25,9.48l9.48,3.85,9.18,4.74c5.87,3.27,11.51,6.93,16.89,10.96l7.7,6.22,3.55,3.26,3.55,3.26,6.81,6.81,6.22,7.11c7.67,9.54,14.14,19.99,19.26,31.11,4.77,10.43,8.34,21.36,10.67,32.59,4.02,19.84,4.02,40.3,0,60.14v.3Z"/>
  <path class="cls-4" d="M309.77,122.44c-2.2-11.41-5.68-22.55-10.37-33.18C270.36,24.72,200.48-11.08,131.13,3.05c-5.71,1.14-11.35,2.63-16.89,4.44-8.01,2-15.84,4.67-23.4,8C13.68,49.75-21.11,140.07,13.15,217.24c1.65,3.72,3.46,7.38,5.4,10.96,3.6,6.6,7.65,12.94,12.15,18.96,4.56,5.95,9.51,11.59,14.81,16.89,43.03,42.82,107.29,56.18,163.83,34.07l9.78-4.15,8.89-4.44c5.98-3.36,11.72-7.12,17.18-11.26l8-6.22,3.56-3.26,3.26-2.67,5.93-5.33,2.07-1.78,1.78-2.07,5.33-5.93c6.67-7.56,12.53-15.8,17.48-24.59,7.78-13.56,13.37-28.25,16.59-43.55,4.22-19.9,4.42-40.45.59-60.43h0ZM257.93,262.57l-3.55,3.26-3.56,3.26-7.7,6.22c-5.38,3.93-11.02,7.5-16.89,10.67l-8.89,4.44-9.48,3.85-14.52,4.74h-1.48c-19.82,4.14-40.28,4.24-60.14.3-11.33-2.3-22.36-5.88-32.88-10.67-11.1-5.03-21.55-11.4-31.11-18.96-10.12-8.11-19.18-17.47-26.96-27.85-4.03-5.38-7.69-11.02-10.96-16.89-1.78-2.96-3.26-5.93-4.74-9.18s-2.96-6.22-3.85-9.48C1.62,155.22,11.39,97.54,46.7,55.78l2.37-2.37,1.48-1.78,1.78-1.78,3.56-3.26,7.11-6.22C97.09,12.74,141.61,1.48,184.75,9.57c15.25,2.75,29.96,7.95,43.55,15.4,8.79,4.83,17.04,10.59,24.59,17.18l5.92,5.33,2.07,1.78,1.78,2.07,5.33,5.93c16.88,19.31,28.42,42.7,33.48,67.84,3.91,19.77,3.81,40.12-.3,59.84-2.32,11.23-5.9,22.16-10.67,32.59-5.21,11.14-11.77,21.59-19.55,31.11l-6.22,7.11-6.81,6.81ZM124.91,301.08c-14.18-2.93-27.85-7.92-40.59-14.81-6.4-3.51-12.53-7.47-18.37-11.85-5.74-4.38-11.18-9.13-16.29-14.22C8.65,218.7-4.12,156.95,17.07,102.59c1.18-3.26,2.67-6.22,3.85-9.18l1.78-3.85c-4.6,10.44-7.98,21.37-10.07,32.59-5.68,28.25-3.22,57.53,7.11,84.43,1.18,3.26,2.67,6.52,4.15,9.48s2.96,6.22,4.74,9.18c3.26,5.97,6.92,11.71,10.96,17.18,7.84,10.51,17,19.97,27.26,28.14,9.73,7.7,20.38,14.17,31.7,19.26,26.63,11.99,56.16,16,85.03,11.55-19.38,3.79-39.32,3.69-58.66-.3h0ZM308.29,182.88c-3.11,15.28-8.61,29.98-16.29,43.55-4.85,8.77-10.61,17.02-17.18,24.59l-5.33,5.92-1.78,2.07-2.07,1.78-5.63,5.04h.59l6.81-7.11,6.22-7.41c7.71-9.83,14.18-20.58,19.26-32,12.96-29.42,16.28-62.19,9.48-93.62-1.76-8.3-4.24-16.42-7.41-24.29-2.59-6.63-5.66-13.07-9.18-19.26-4.95-8.79-10.81-17.03-17.48-24.59l-5.33-5.92-1.78-2.07-2.07-1.78-5.93-5.33c-7.43-7.05-15.57-13.3-24.29-18.67-6.18-3.63-12.61-6.8-19.26-9.48-7.86-3.26-15.99-5.84-24.29-7.7-12.35-2.72-24.99-3.91-37.62-3.56,22.85-2.01,45.85,1.24,67.25,9.48l9.48,3.85,9.18,4.74c5.87,3.27,11.51,6.93,16.89,10.96l7.7,6.22,3.55,3.26,3.55,3.26,6.81,6.81,6.22,7.11c7.67,9.54,14.14,19.99,19.26,31.11,4.77,10.43,8.34,21.36,10.67,32.59,4.02,19.84,4.02,40.3,0,60.14v.3Z"/>
  <g>
    <path class="cls-1" d="M195.94,109.31c-.19.6-.54,1.12-1.06,1.57-.52.45-1.07.67-1.63.67-.34,0-1.36-.63-3.08-1.91-.82-.6-1.51-.9-2.07-.9-1.79,0-3.18.6-4.15,1.79-.52.71-.97,1.66-1.35,2.86-.23.67-.52,1.81-.9,3.42-.49,2.32-.84,3.81-1.07,4.48-.45,1.53-1.03,2.77-1.74,3.7-1.27,1.76-2.52,3.25-3.76,4.48-1.24,1.24-2.61,2.33-4.09,3.25-1.26.72-2.57,1.34-3.92,1.85-1.38.52-2.92.92-4.6,1.18v1.28l.78,3.45c.04.26.07.61.07,1.06v1c0,.45-.28.67-.84.67h-3.59c-.45,0-.67-.24-.67-.72,0-.44-.04-1.31-.11-2.61-.07-1.3-.11-2.03-.11-2.18v-1.11c-1.31.32-2.66.49-4.01.5h-3.95v1.25c.22.98.45,1.94.67,2.89v1.09c0,.25-.04.52-.11.79-.07.27-.31.37-.72.3-.19-.05-.52-.09-1-.14-.55-.05-1.11-.07-1.66-.07h-1.28c-.48,0-.72-.18-.72-.55l.22-.44v-5.18c-.52.18-1.18.48-1.96.88-.56.29-1.21.64-1.96,1.05-2.35,1.36-4.24,1.45-5.66,2.01-2.34.92-4.83,1.38-7.34,1.38-1.68,0-3.5-.05-5.47-.47-1.96-.41-4.16-.36-6.59-1.25-.33-.11-.5-.32-.5-.64,0-.43.28-.64.84-.64,5.76,0,9.95-.26,12.58-.79,2.63-.52,4.57-1.44,5.8-2.75,1.91-3.56,3.73-6.47,5.47-8.74,1.74-2.27,4.19-4.3,7.37-6.1.56-.34,1.18-.59,1.82-.73.67-.15,1.36-.23,2.05-.23,1.35,0,3.47.75,6.39,2.24s5.12,2.24,6.61,2.24h1.18c.64,0,1.14-.03,1.51-.08.37-.06.78-.2,1.23-.42,1.42-.64,2.65-1.44,3.7-2.41.86-.82,1.74-1.89,2.63-3.2.52-.82,1.31-2.26,2.35-4.32.9-1.83,1.66-3.25,2.3-4.26.9-1.49,1.92-2.63,3.08-3.42,1.35-.93,2.88-1.4,4.6-1.4,1.38,0,2.84.24,4.37.73,1.53.49,2.65,1.08,3.36,1.79.64.49.86,1.08.67,1.79h0Z"/>
    <circle class="cls-2" cx="194.03" cy="108.28" r=".38"/>
  </g>
  <path class="cls-2" d="M60.32,166.84h-4.07c-.14,0-.26-.11-.26-.26,0,0,0,0,0,0v-3.07c0-.14.12-.26.26-.26h11.94c.14,0,.26.11.26.26v3.07c0,.14-.12.26-.26.26h-4.07v15.06c0,.14-.11.26-.26.26h-3.29c-.14,0-.26-.11-.26-.26,0,0,0,0,0,0v-15.06h0ZM66.45,164.83h-8.65c-.2,0-.2.37,0,.37h4.24v15.18c0,.2.37.2.37,0v-15.18h4.04c.29,0,.26-.37,0-.37ZM83.74,174.68c-.4.83-.97,1.46-1.78,1.83l2.4,5.3c.09.17-.03.34-.2.34h-3.52c-.11,0-.17-.06-.2-.14l-2.24-4.87h-1.46v4.75c0,.14-.11.26-.26.26h-3.3c-.11,0-.2-.11-.2-.26v-18.38c0-.14.08-.26.2-.26h5.96c3.18,0,5.1,1.8,5.1,5.15v3.61c0,1-.17,1.95-.52,2.66h0ZM80.51,171.13v-1.86c0-2.01-.74-2.21-2.92-2.21h-.83v6.33h.83c1.81,0,2.86-.03,2.92-2.26h0ZM75.09,180.41v-4.9h4.12l2.4,4.96c.06.14.4.09.32-.17l-2.4-4.87c2.23-.32,3.01-1.49,3.01-3.61v-3.58c0-3.15-2.86-3.41-3.75-3.41h-3.87c-.06,0-.17.09-.17.17v15.41c0,.2.34.2.34,0ZM82.19,168.24v3.58c0,2.92-1.86,3.32-3.67,3.32h-3.44v-9.94h3.69c3.09,0,3.41,2.09,3.41,3.04ZM93.44,163.43c.03-.09.09-.17.2-.17h3.55c.11,0,.17.09.2.17l4.96,18.41c.03.17-.09.32-.26.32h-3.26c-.09,0-.17-.06-.2-.17l-1.12-4.01h-4.18l-1.09,4.01c-.03.11-.09.17-.2.17h-3.29c-.17,0-.29-.14-.26-.32l4.95-18.41ZM94.24,174.43h2.38l-1.23-4.32-1.15,4.32ZM98.65,176.12l1.32,4.29c.06.17.37.14.29-.09l-4.58-15.23c-.09-.37-.57-.4-.66,0l-4.44,15.23c-.09.2.23.29.32.12l1.26-4.32s6.5,0,6.5,0ZM92.24,175.74l3.12-10.54,3.18,10.54h-6.3ZM114.71,163.52c0-.14.11-.26.26-.26h3.29c.14,0,.26.11.26.26v18.38c0,.14-.11.26-.26.26h-3.18c-.11,0-.23-.06-.26-.14l-4.18-9.42v9.31c0,.14-.11.26-.26.26h-3.27c-.14,0-.23-.11-.23-.26v-18.38c0-.14.09-.26.23-.26h3.38c.11,0,.17.09.2.14l4.01,9.25v-9.14h0ZM116.77,180.44v-15.46c0-.2-.37-.26-.37,0v14.72l-7.47-14.78c-.09-.12-.32-.12-.32.06v15.43c0,.26.34.26.34,0v-14.69l7.44,14.75c.11.2.37.14.37-.03h0ZM130.88,170.56c2.18,1.03,5.01,2.66,5.01,5.61,0,.86-.14,2.52-1.09,3.92-1.06,1.57-2.72,2.35-5.01,2.35-2.43,0-5.27-1.18-6.16-3.84-.03-.09,0-.17.09-.23l2.63-2.26c.11-.09.29-.09.37.06.06.14.17.37.32.66.43.89,1.46,1.77,2.6,1.77.89,0,2.09-.49,2.09-1.86s-1.8-2.06-2.92-2.49c-1.29-.51-2.61-1.17-3.72-2.15-1.17-1.09-1.75-2.29-1.75-3.72,0-3.58,3.29-5.38,6.41-5.38,2.46,0,4.3,1.29,5.5,3.84.06.12,0,.26-.09.32l-2.55,1.78c-.12.06-.17.06-.29-.09-.97-1.4-1.83-2.06-2.98-2.06-.6,0-2,.23-2,1.29,0,1.29,2.38,1.95,3.52,2.49h0ZM125.67,178.46c.72,1.43,2.69,2.26,4.3,2.26,2.09,0,3.78-1.43,4.01-3.61.29-2.66-1.8-3.81-3.87-4.84l-.92-.4c-2.12-.95-3.67-1.66-3.67-3.64,0-2.18,2-3.18,3.98-3.18,1.8,0,2.75,1.06,3.24,1.72.17.23.46.03.29-.2-.49-.6-1.52-1.86-3.52-1.86-2.26,0-4.32,1.12-4.32,3.52,0,2.15,1.72,2.98,3.89,3.98l.89.43c2.84,1.35,3.87,2.61,3.64,4.44-.43,2.92-2.66,3.29-3.64,3.29-2.15,0-3.58-1.29-4.01-2.09-.14-.14-.34,0-.29.17h0ZM146.88,163.26c3.18,0,5.1,1.8,5.1,5.15v3.61c0,3.06-1.89,5.13-5.1,5.13h-2.4v4.75c0,.14-.11.26-.26.26h-3.29c-.12,0-.2-.11-.2-.26v-18.38c0-.14.09-.26.2-.26h5.96ZM148.23,171.16v-1.89c0-1.98-.92-2.18-2.92-2.18h-.83v6.3h.83c1.57,0,2.92-.29,2.92-2.23ZM150.26,171.82v-3.58c0-3.15-2.43-3.41-3.75-3.41h-3.87c-.06,0-.17.09-.17.17v15.41c0,.2.34.2.34,0v-4.87h3.44c2.52,0,4.01-.89,4.01-3.72h0ZM142.82,165.21h3.69c3.18,0,3.38,2.09,3.38,3.04v3.58c0,2.92-1.83,3.32-3.64,3.32h-3.44v-9.94ZM160.13,163.43c.03-.09.09-.17.2-.17h3.55c.11,0,.17.09.2.17l4.95,18.41c.03.17-.09.32-.26.32h-3.26c-.09,0-.17-.06-.2-.17l-1.12-4.01h-4.18l-1.09,4.01c-.03.11-.09.17-.2.17h-3.29c-.17,0-.29-.14-.26-.32l4.95-18.41ZM160.94,174.43h2.38l-1.23-4.32-1.15,4.32ZM165.35,176.12l1.32,4.29c.06.17.37.14.29-.09l-4.58-15.23c-.09-.37-.57-.4-.66,0l-4.44,15.23c-.09.2.23.29.32.12l1.26-4.32h6.5,0ZM158.93,175.74l3.12-10.54,3.18,10.54h-6.3,0ZM184.32,174.68c-.4.83-.97,1.46-1.77,1.83l2.41,5.3c.09.17-.03.34-.2.34h-3.52c-.12,0-.17-.06-.2-.14l-2.23-4.87h-1.46v4.75c0,.14-.11.26-.26.26,0,0,0,0,0,0h-3.29c-.11,0-.2-.11-.2-.26v-18.38c0-.14.09-.26.2-.26h5.96c3.18,0,5.1,1.8,5.1,5.15v3.61c0,1-.17,1.95-.52,2.66h0ZM181.09,171.13v-1.86c0-2.01-.74-2.21-2.92-2.21h-.83v6.33h.83c1.8,0,2.86-.03,2.92-2.26h0ZM175.68,180.41v-4.9h4.12l2.4,4.96c.06.14.4.09.32-.17l-2.4-4.87c2.23-.32,3.01-1.49,3.01-3.61v-3.58c0-3.15-2.86-3.41-3.75-3.41h-3.87c-.06,0-.17.09-.17.17v15.41c0,.2.34.2.34,0ZM182.78,168.24v3.58c0,2.92-1.86,3.32-3.66,3.32h-3.44v-9.94h3.69c3.09,0,3.41,2.09,3.41,3.04h0ZM194.03,163.43c.03-.09.09-.17.2-.17h3.55c.12,0,.17.09.2.17l4.96,18.41c.03.17-.09.32-.26.32h-3.26c-.09,0-.17-.06-.2-.17l-1.12-4.01h-4.18l-1.09,4.01c-.03.11-.09.17-.2.17h-3.29c-.17,0-.29-.14-.26-.32l4.96-18.41ZM194.83,174.43h2.38l-1.23-4.32-1.15,4.32ZM199.24,176.12l1.32,4.29c.06.17.37.14.29-.09l-4.58-15.23c-.09-.37-.57-.4-.66,0l-4.44,15.23c-.09.2.23.29.32.12l1.26-4.32h6.5ZM192.82,175.74l3.12-10.54,3.18,10.54h-6.3ZM214.86,163.26c1.95,0,3.41.54,4.38,1.6.86.95,1.29,2.35,1.29,4.07v7.59c0,3.46-2.01,5.64-5.67,5.64h-7.16c-.14,0-.23-.11-.23-.26v-18.38c0-.14.09-.26.23-.26h7.16ZM216.78,175.66v-5.87c0-1.8-.95-2.95-2.95-2.95h-2.58v11.74h2.58c1.72,0,2.95-1.12,2.95-2.92h0ZM209.22,165.01v15.41c0,.12.11.14.17.14h4.67c3.29,0,4.78-1.98,4.78-3.81v-7.33c0-3.04-1.6-4.58-4.87-4.58h-4.58c-.06,0-.17.03-.17.17h0ZM218.5,169.42v7.33c0,2.29-2.29,3.49-4.44,3.49h-4.5v-15.03h4.41c3.01,0,4.52,1.35,4.52,4.21h0ZM232.3,163c2.46,0,4.18.54,5.27,1.72.86.95,1.26,2.29,1.26,4.21v7.53c0,1.98-.4,3.35-1.26,4.27-1.12,1.15-2.81,1.72-5.27,1.72s-4.21-.57-5.3-1.72c-.83-.92-1.29-2.29-1.29-4.27v-7.53c0-1.92.46-3.26,1.29-4.24,1.12-1.15,2.81-1.69,5.3-1.69ZM235.02,175.6v-5.73c0-2.52-1.35-3.04-2.58-3.04h-.34c-1.83,0-2.55,1.17-2.55,3.04v5.73c0,2.52,1.35,3.06,2.55,3.06h.34c1.83,0,2.55-1.23,2.58-3.06ZM227.51,169.13v7.1c0,1.35.34,2.46,1.15,3.29.74.74,1.89,1.15,3.29,1.15h.74c2.69,0,4.44-1.72,4.44-4.44v-7.1c0-2.92-1.55-4.5-4.44-4.5h-.74c-2.92,0-4.44,1.57-4.44,4.5h0ZM232.7,180.3h-.74c-1.35,0-2.35-.34-3.06-1.06s-1.09-1.72-1.09-3.01v-7.1c0-2.72,1.46-4.15,4.15-4.15h.74c2.72,0,4.07,1.4,4.07,4.15v7.1c0,1.2-.37,2.29-1.15,3.04-.74.63-1.75,1.03-2.92,1.03h0ZM252.19,163.52c0-.14.12-.26.26-.26h3.29c.14,0,.26.11.26.26v18.38c0,.14-.11.26-.26.26h-3.18c-.12,0-.23-.06-.26-.14l-4.18-9.42v9.31c0,.14-.11.26-.26.26h-3.27c-.14,0-.23-.11-.23-.26v-18.38c0-.14.09-.26.23-.26h3.38c.11,0,.17.09.2.14l4.01,9.25v-9.14h0ZM254.25,180.44v-15.46c0-.2-.37-.26-.37,0v14.72l-7.47-14.78c-.09-.12-.32-.12-.32.06v15.43c0,.26.34.26.34,0v-14.69l7.45,14.75c.11.2.37.14.37-.03h0ZM81.5,197.32c0,.36,0,.75,0,1.17s-.01.84-.05,1.26-.11.83-.21,1.22-.26.74-.47,1.04-.49.54-.84.72-.77.27-1.29.27h-2.65v-10.91h2.54c.53,0,.97.07,1.32.23s.64.35.86.61.39.56.49.9.18.71.22,1.1.06.79.06,1.19v1.19h0ZM80.51,197.43v-.62c0-.56-.03-1.12-.08-1.67-.01-.2-.04-.39-.09-.58-.17-.49-.39-.84-.68-1.08s-.7-.35-1.22-.35h-1.46v8.84h1.64c.21,0,.41-.04.58-.12s.33-.18.48-.31.27-.28.37-.45.19-.35.25-.53c.05-.13.08-.33.11-.62s.04-.59.06-.91.03-.63.03-.92,0-.52,0-.68h0ZM88.01,203.01h-5.45v-10.91h5.35v1.1h-4.35v3.75h4.32v.95h-4.32v4h4.45v1.1h0ZM93.79,199.23c-.01.54-.03,1.05-.06,1.53s-.13.89-.3,1.24-.44.63-.81.84-.89.31-1.57.31c-.48,0-.88-.07-1.21-.21s-.6-.34-.8-.6-.35-.57-.44-.93-.14-.77-.14-1.21v-5.24c0-.48.05-.9.15-1.26s.25-.68.47-.93.5-.44.85-.57.78-.19,1.28-.19c.61,0,1.09.1,1.43.31s.59.49.76.84.27.75.31,1.2.06.92.07,1.4h-.96c0-.32,0-.65,0-.99s-.05-.65-.14-.92-.25-.5-.48-.68-.57-.27-1.01-.27c-.34,0-.62.05-.85.15s-.41.24-.54.42-.22.4-.28.65-.08.53-.08.84l.03,5.31c0,.29.02.55.07.79s.12.44.24.61.28.3.49.39.47.14.79.14c.5,0,.86-.08,1.11-.25s.41-.4.51-.68.15-.6.15-.95,0-.71,0-1.08h.96,0ZM100.3,203.01h-5.45v-10.91h5.35v1.1h-4.35v3.75h4.32v.95h-4.32v4h4.45v1.1h0ZM107.14,203.01h-1.13l-3.78-8.58v8.58h-1.05v-10.91h1.05l3.8,8.22.09-8.22h1.03v10.91h0ZM113.64,193.16h-2.25v9.85h-1.08v-9.85h-2.25v-1.06h5.58s0,1.06,0,1.06ZM120.99,203.01h-1.25l-2.28-4.41h-1.89v4.41h-.97v-10.91h2.5c1,0,1.79.29,2.37.86s.87,1.36.87,2.36c0,.31-.04.62-.12.95s-.2.62-.36.9-.35.54-.57.76-.49.4-.78.53l2.49,4.55ZM119.3,195.24c0-.34-.06-.64-.18-.92s-.28-.5-.48-.69-.45-.34-.73-.44-.59-.15-.92-.15h-1.44v4.55h1.53c.78,0,1.34-.21,1.69-.63s.52-.99.52-1.73h0ZM128.18,203.01h-1.02l-.77-3.13h-3.17l-.77,3.13h-.99l2.95-10.91h.83l2.94,10.91ZM126.15,198.91l-1.29-5.4-1.38,5.4h2.68ZM133.33,203.01h-4.49v-10.91h1.02v9.86h3.48v1.05ZM135.24,203.01h-1.09v-10.91h1.09v10.91ZM142.16,203.01h-5.67v-1.44l4.7-8.39h-4.7v-1.08h5.67v1.44l-4.67,8.39h4.67v1.08ZM144.21,203.01h-1.09v-10.91h1.09v10.91ZM151.43,203.01h-1.13l-3.78-8.58v8.58h-1.05v-10.91h1.05l3.8,8.22.09-8.22h1.03v10.91h0ZM158.22,200.19c0,1.02-.23,1.76-.69,2.24s-1.21.71-2.23.71c-.95,0-1.65-.26-2.09-.79s-.66-1.24-.66-2.17v-5.24c0-.99.23-1.73.7-2.22s1.2-.73,2.2-.73,1.66.26,2.11.76.67,1.23.67,2.16v.9h-1.03c0-.35,0-.7,0-1.05s-.06-.67-.16-.95-.28-.5-.52-.68-.61-.26-1.08-.26c-.7,0-1.18.18-1.45.55s-.4.87-.4,1.52v5.29c0,.63.13,1.11.38,1.45s.71.5,1.38.5,1.14-.16,1.44-.47.45-.79.45-1.43v-1.93h-2.17v-1h3.17v2.84h0ZM167.63,195.59c0,.49-.08.94-.23,1.35s-.37.78-.65,1.08-.63.54-1.03.72-.86.26-1.35.26h-1.35v4h-1.09v-10.91h2.65c.53,0,.99.09,1.38.27s.7.42.95.73.44.68.56,1.11.18.89.18,1.38h0ZM166.52,195.56c0-.79-.16-1.39-.49-1.81s-.91-.63-1.75-.63h-1.28v4.83h1.13c.79,0,1.38-.2,1.78-.61s.6-1,.6-1.77h0ZM174.14,203.01h-1.1v-4.95h-3.5v4.95s-1.08,0-1.08,0v-10.91h1.09v4.93s3.48,0,3.48,0v-4.93h1.12v10.91h0ZM176.51,203.01h-1.09v-10.91h1.09v10.91ZM182.26,203.01h-4.49v-10.91h1.02v9.86h3.48v1.05ZM189.58,203.01h-1.02l-.77-3.13h-3.17l-.77,3.13h-.99l2.95-10.91h.83l2.94,10.91ZM187.54,198.91l-1.29-5.4-1.38,5.4h2.68ZM196.35,203.01h-1.13l-3.78-8.58v8.58h-1.05v-10.91h1.05l3.8,8.22.09-8.22h1.03v10.91h0ZM202.85,193.16h-2.25v9.85h-1.08v-9.85h-2.25v-1.06h5.59v1.06h0ZM209.15,203.01h-1.11v-4.95h-3.51v4.95s-1.08,0-1.08,0v-10.91h1.09v4.93s3.48,0,3.48,0v-4.93h1.12v10.91h0ZM216.83,203.01h-1.25l-2.28-4.41h-1.89v4.41h-.98v-10.91h2.5c1,0,1.79.29,2.37.86s.87,1.36.87,2.36c0,.31-.04.62-.12.95s-.2.62-.36.9-.35.54-.57.76-.49.4-.78.53l2.49,4.55ZM215.14,195.24c0-.34-.06-.64-.18-.92s-.28-.5-.48-.69-.45-.34-.73-.44-.59-.15-.92-.15h-1.44v4.55h1.53c.78,0,1.34-.21,1.69-.63s.52-.99.52-1.73h0ZM222.91,200.19c0,1.03-.23,1.78-.69,2.25s-1.21.71-2.25.71c-.95,0-1.65-.26-2.09-.79s-.66-1.24-.66-2.17v-5.24c0-1,.24-1.74.71-2.23s1.21-.73,2.22-.73,1.66.26,2.1.76.66,1.23.66,2.16v5.26h0ZM221.89,200.16v-5.25c0-.55-.15-1.01-.44-1.38s-.73-.55-1.32-.55c-.71,0-1.2.18-1.48.55s-.41.89-.41,1.56v5.02c0,.28.03.55.09.79s.16.46.31.65.32.33.54.44.48.16.79.16c.68,0,1.17-.16,1.47-.49s.45-.82.45-1.48h0ZM229.85,195.59c0,.49-.08.94-.23,1.35s-.37.78-.65,1.08-.63.54-1.03.72-.86.26-1.35.26h-1.35v4h-1.09v-10.91h2.65c.53,0,.99.09,1.37.27s.7.42.95.73.44.68.56,1.11.18.89.18,1.38h0ZM228.74,195.56c0-.79-.16-1.39-.49-1.81s-.91-.63-1.75-.63h-1.28v4.83h1.13c.79,0,1.38-.2,1.78-.61s.6-1,.6-1.77h0ZM236,192.1l-2.57,5.93v4.97h-1.05v-4.97l-2.57-5.93h1.16l1.92,4.68,1.95-4.68h1.16Z"/>
</svg>